<svg width="31" height="27" viewBox="0 0 31 27" fill="none" xmlns="http://www.w3.org/2000/svg">
<path d="M16.7878 7.93575V4.5C16.7879 4.27754 16.8636 4.06007 17.0056 3.87511C17.1475 3.69015 17.3492 3.546 17.5852 3.46087C17.8212 3.37574 18.0809 3.35346 18.3314 3.39685C18.5819 3.44024 18.812 3.54734 18.9927 3.70463L28.0343 11.5796C28.1544 11.684 28.2496 11.808 28.3146 11.9445C28.3796 12.081 28.4131 12.2273 28.4131 12.375C28.4131 12.5228 28.3796 12.6691 28.3146 12.8055C28.2496 12.942 28.1544 13.066 28.0343 13.1704L18.9927 21.0454C18.8123 21.2032 18.5821 21.3108 18.3314 21.3545C18.0806 21.3982 17.8206 21.376 17.5844 21.2908C17.3482 21.2056 17.1463 21.0612 17.0045 20.8759C16.8627 20.6905 16.7872 20.4727 16.7878 20.25V16.767C16.421 16.7445 16.058 16.7344 15.6989 16.7344C8.69034 16.7344 5.05688 20.7529 4.898 20.9306C4.73517 21.1182 4.50871 21.2564 4.2507 21.3257C3.99268 21.3949 3.71619 21.3917 3.46038 21.3165C3.20376 21.2415 2.98067 21.0983 2.8226 20.9069C2.66454 20.7155 2.57949 20.4857 2.57946 20.25C2.57946 9.98551 13.0239 8.23388 16.7878 7.93575V7.93575ZM15.6989 14.4844C16.5346 14.4844 17.3936 14.535 18.25 14.634C18.5603 14.6702 18.845 14.8033 19.0512 15.0086C19.2574 15.2138 19.3711 15.4773 19.3711 15.75V17.5343L25.2947 12.375L19.3711 7.21575V9C19.3711 9.621 18.7628 10.125 18.051 10.125C16.8756 10.125 7.57046 10.3511 5.549 17.3531C7.68542 15.9829 11.0786 14.4844 15.6989 14.4844Z" fill="#666666"/>
</svg>
