<svg width="26" height="23" viewBox="0 0 26 23" fill="none" xmlns="http://www.w3.org/2000/svg">
<path d="M0.84825 12.107C0.30225 11.4875 9.53674e-07 10.7283 9.53674e-07 9.93849C9.53674e-07 8.68537 0.815751 7.49923 2.12875 6.83778C2.46677 6.66752 2.85163 6.57791 3.2435 6.57822H11.037L10.842 3.14818C10.7965 2.31928 11.1377 1.53224 11.8007 0.932188C12.1261 0.636429 12.5187 0.401112 12.9541 0.24078C13.3896 0.0804479 13.8587 -0.00149318 14.3325 2.05974e-05C16.0225 2.05974e-05 17.5175 0.976843 17.966 2.37509L20.7578 11.0549H24.96C25.5353 11.0549 26 11.454 26 11.948V22.1069C26 22.6009 25.5353 23 24.96 23H5.41775C5.11875 23 4.82625 22.9498 4.5565 22.8493C3.0095 22.2827 2.01175 20.985 2.01175 19.5448C2.01175 19.1932 2.07025 18.8471 2.18725 18.5122C1.64125 17.8926 1.339 17.1335 1.339 16.3437C1.339 15.992 1.3975 15.6459 1.5145 15.311C0.9685 14.6914 0.666251 13.9323 0.666251 13.1425C0.672751 12.7908 0.73125 12.4419 0.84825 12.107V12.107ZM23.66 20.9905V13.0643H21.0275V20.9905H23.66ZM2.977 11.1386L3.68875 11.6689L3.237 12.3778C3.08817 12.6113 3.011 12.8735 3.01275 13.1397C3.01275 13.6002 3.24675 14.0384 3.64975 14.3398L4.3615 14.87L3.90975 15.5789C3.76092 15.8125 3.68375 16.0747 3.6855 16.3409C3.6855 16.8014 3.9195 17.2395 4.3225 17.541L5.03425 18.0712L4.5825 18.7801C4.43367 19.0136 4.3565 19.2758 4.35825 19.542C4.35825 20.1672 4.78725 20.731 5.45025 20.9877H18.9475V12.975L15.7138 2.91374C15.6304 2.65586 15.4514 2.42835 15.2039 2.26568C14.9564 2.10301 14.6539 2.01405 14.3423 2.01227C14.0953 2.01227 13.8515 2.07367 13.6565 2.19927C13.3348 2.40579 13.1625 2.71838 13.182 3.0505L13.494 8.58768H3.276C2.6975 8.8919 2.34 9.40542 2.34 9.93849C2.34 10.399 2.574 10.8344 2.977 11.1386Z" fill="#666666"/>
</svg>
